# xmcd CD database file
# Copyright (C) 1996 Ti Kan
#
# Track frame offsets:
#  150
#  12635
#  31695
#  44850
#  58320
#  82487
#  96477
#  113117
#  129977
#  147460
#  163600
#
# Disc length: 2403 seconds
#
# Revision: 1
# Processed by: cddbd v1.4b41PL1 Copyright (c) Steve Scherf et al.
# Submitted via: CDWizzard Release:4.12
#
DISCID=a609610b
DTITLE=Johnny Nocturne Band - Shake 'Em Up
DYEAR=1900
DGENRE=
TTITLE0=Reelin' And Rockin'
TTITLE1=Fool's Blues
TTITLE2=I Ain't Got Nothin' But The Blues
TTITLE3=Boogie Woogie Choo-Choo Train
TTITLE4=Shake 'Em Up
TTITLE5=If It's News To You
TTITLE6=New Blues
TTITLE7=What A Way To Go
TTITLE8=Oh Babe
TTITLE9=One Monkey Don't Stop No Show
TTITLE10=Mardi Gras Alley
EXTD=
EXTT0=
EXTT1=
EXTT2=
EXTT3=
EXTT4=
EXTT5=
EXTT6=
EXTT7=
EXTT8=
EXTT9=
EXTT10=
PLAYORDER=
